# xmcd
#
# Track frame offsets:
#	150
#	14921
#	28685
#	44217
#	60213
#	74945
#	90560
#	107445
#	121174
#	135804
#	150188
#	164914
#	176670
#	189797
#	202392
#	220037
#	234462
#	248589
#	260834
#	276237
#
# Disc length: 3868 seconds
#
# Revision: 0
# Processed by: cddbd v1.5.2PL0 Copyright (c) Steve Scherf et al.
# Submitted via: EasyCDDAExtractor 11.1.0.1
#
DISCID=230f1a14
DTITLE=Lasse Stefanz - Vart Tog Tiden Vägen Cd 1 - 2
DYEAR=2008
DGENRE=Dance
TTITLE0=Bortom Horisonten
TTITLE1=Vid Flodens Strand
TTITLE2=Vårt Sextital
TTITLE3=Emelie
TTITLE4=När Countryn Kom Till Skåne
TTITLE5=Över Bergen Skall Det Klinga
TTITLE6=Morgongåva
TTITLE7=Om Du Går
TTITLE8=Tiden Läker Alla Sår
TTITLE9=Livets Ljusa Sida
TTITLE10=Gå Nu Min Älskling
TTITLE11=Om Du Vill
TTITLE12=Hallå Min Sol
TTITLE13=Ta En Titt På Kärleken
TTITLE14=Håll Mig Hårt
TTITLE15=Mitt Hjärtas Bok
TTITLE16=Tic Tac Toe
TTITLE17=Pigan I Dalen
TTITLE18=En Bättre Värld
TTITLE19=En Slant I Min Jukebox
EXTD=
EXTT0=
EXTT1=
EXTT2=
EXTT3=
EXTT4=
EXTT5=
EXTT6=
EXTT7=
EXTT8=
EXTT9=
EXTT10=
EXTT11=
EXTT12=
EXTT13=
EXTT14=
EXTT15=
EXTT16=
EXTT17=
EXTT18=
EXTT19=
PLAYORDER=
